<svg width="50" height="50" viewBox="0 0 50 50" fill="none" xmlns="http://www.w3.org/2000/svg">
<circle cx="25" cy="25" r="25" fill="#1F2226"/>
<path d="M27.6237 18.9195C27.9613 18.5305 28.2186 18.0786 28.381 17.5898C28.5435 17.101 28.6077 16.585 28.5701 16.0713C27.5339 16.1549 26.5719 16.6423 25.8916 17.4284C25.5658 17.8052 25.3189 18.2435 25.1655 18.7174C25.0121 19.1913 24.9554 19.6911 24.9987 20.1874C25.5042 20.1916 26.0039 20.0794 26.4591 19.8596C26.9143 19.6397 27.3128 19.3181 27.6237 18.9195ZM29.8737 25.5624C29.8797 24.8782 30.0599 24.2068 30.3973 23.6116C30.7348 23.0165 31.2183 22.5171 31.8023 22.1606C31.4337 21.6295 30.9465 21.1917 30.3793 20.8817C29.812 20.5717 29.1804 20.3982 28.5344 20.3749C27.1416 20.232 25.8559 21.1874 25.1148 21.1874C24.3737 21.1874 23.3291 20.3927 22.1684 20.4106C21.4095 20.4356 20.6702 20.6568 20.0223 21.0527C19.3745 21.4486 18.8403 22.0056 18.4719 22.6695C16.9005 25.4016 18.0701 29.4641 19.6416 31.6695C20.3559 32.7499 21.2487 33.9731 22.4273 33.9284C23.6059 33.8838 23.9898 33.1963 25.3559 33.1963C26.7219 33.1963 27.1416 33.9284 28.3023 33.9016C29.463 33.8749 30.2844 32.7945 31.0344 31.7141C31.5657 30.9298 31.9807 30.0727 32.2666 29.1695C31.559 28.8677 30.9552 28.3653 30.53 27.7242C30.1047 27.0832 29.8766 26.3316 29.8737 25.5624Z" fill="white"/>
</svg>
