<svg width="24" height="24" viewBox="0 0 24 24" fill="none" xmlns="http://www.w3.org/2000/svg">
<path d="M12.7647 3.5H6.23529C4.7528 3.5 4.01156 3.5 3.44532 3.77277C2.94724 4.01271 2.54229 4.39557 2.28851 4.86647C2 5.40182 2 6.10262 2 7.50424V11.3787C2 11.8092 2 12.0245 2.02795 12.2049C2.19745 13.2989 3.10624 14.1581 4.26342 14.3184C4.74201 14.3847 5.13725 14.7365 5.13725 15.2197V16.4733C5.13725 16.9826 5.13725 17.2372 5.24349 17.3544C5.33566 17.456 5.47383 17.5097 5.61496 17.4986C5.77762 17.4858 5.96687 17.3046 6.34536 16.9423L9.05882 14.3448H17V7.50424C17 6.10262 17 5.40182 16.7115 4.86647C16.4577 4.39557 16.0528 4.01271 15.5547 3.77277C14.9884 3.5 14.2472 3.5 12.7647 3.5Z" fill="#CCE0FF" stroke="#CCE0FF" stroke-linecap="round" stroke-linejoin="round"/>
<path d="M21 13.4091C21 12.3908 21 11.8817 20.8002 11.4927C20.6244 11.1506 20.3439 10.8725 19.999 10.6982C19.6068 10.5 19.0934 10.5 18.0667 10.5H12.9333C11.9066 10.5 11.3932 10.5 11.001 10.6982C10.6561 10.8725 10.3756 11.1506 10.1998 11.4927C10 11.8817 10 12.3908 10 13.4091V15.6948C10 16.7131 10 17.2222 10.1998 17.6112C10.3756 17.9533 10.6561 18.2314 11.001 18.4057C11.3932 18.6039 11.9066 18.6039 12.9333 18.6039H14.5805C14.9221 18.6039 15.0929 18.6039 15.2576 18.634C15.4038 18.6607 15.5462 18.705 15.6817 18.7658C15.8343 18.8344 15.9745 18.9311 16.255 19.1244L18.25 20.5V18.6039C19.1042 18.6039 19.5313 18.6039 19.8683 18.4655C20.3175 18.281 20.6744 17.927 20.8604 17.4815C21 17.1474 21 16.7238 21 15.8766V13.4091Z" fill="#3E8AFF" stroke="#3E8AFF" stroke-linecap="round" stroke-linejoin="round"/>
</svg>
