<svg width="28" height="28" viewBox="0 0 28 28" fill="none" xmlns="http://www.w3.org/2000/svg">
<g id="&#236;&#186;&#152;&#235;&#166;&#176;&#235;&#141;&#148;">
<g id="Group 1000012225">
<rect id="Rectangle 1954127971" x="3.73315" y="5.74573" width="20.5333" height="17.9667" rx="2.56667" fill="#CCE0FF"/>
<path id="Rectangle 1954127972" d="M3.73315 8.3124C3.73315 6.89486 4.88229 5.74573 6.29982 5.74573H21.6998C23.1173 5.74573 24.2665 6.89486 24.2665 8.31239V10.8791H3.73315V8.3124Z" fill="#3E8AFF"/>
<g id="Group 1000012224">
<rect id="Rectangle 1954127972_2" x="7.58325" y="2.53748" width="2.56667" height="5.13333" rx="1.28333" fill="#CCE0FF"/>
<rect id="Rectangle 1954127973" x="17.8499" y="2.53748" width="2.56667" height="5.13333" rx="1.28333" fill="#CCE0FF"/>
</g>
<path id="Vector 11 (Stroke)" fill-rule="evenodd" clip-rule="evenodd" d="M17.206 14.0097C17.6033 14.3629 17.6391 14.9713 17.286 15.3686L13.8637 19.2186C13.6753 19.4306 13.4029 19.5486 13.1194 19.5413C12.8358 19.5339 12.57 19.4019 12.3928 19.1804L10.6817 17.0415C10.3496 16.6264 10.4169 16.0207 10.832 15.6886C11.2471 15.3566 11.8528 15.4239 12.1848 15.839L13.1831 17.0868L15.8472 14.0897C16.2003 13.6924 16.8087 13.6566 17.206 14.0097Z" fill="#3E8AFF"/>
</g>
</g>
</svg>
