<svg width="28" height="28" viewBox="0 0 28 28" fill="none" xmlns="http://www.w3.org/2000/svg">
<g id="&#236;&#186;&#152;&#235;&#166;&#176;&#235;&#141;&#148;">
<g id="Group 1000012225">
<rect id="Rectangle 1954127971" x="3.73303" y="5.74573" width="20.5333" height="17.9667" rx="2.56667" fill="#B2D1FF"/>
<path id="Rectangle 1954127972" d="M3.73303 8.3124C3.73303 6.89486 4.88217 5.74573 6.2997 5.74573H21.6997C23.1172 5.74573 24.2664 6.89486 24.2664 8.31239V10.8791H3.73303V8.3124Z" fill="#3E8AFF"/>
<g id="Group 1000012224">
<rect id="Rectangle 1954127972_2" x="7.58301" y="2.53748" width="2.56667" height="5.13333" rx="1.28333" fill="#B2D1FF"/>
<rect id="Rectangle 1954127973" x="17.8497" y="2.53748" width="2.56667" height="5.13333" rx="1.28333" fill="#B2D1FF"/>
</g>
<path id="Vector 11 (Stroke)" fill-rule="evenodd" clip-rule="evenodd" d="M17.2058 14.0097C17.6031 14.3629 17.6389 14.9713 17.2857 15.3686L13.8635 19.2186C13.675 19.4306 13.4027 19.5486 13.1191 19.5413C12.8356 19.5339 12.5697 19.4019 12.3925 19.1804L10.6814 17.0415C10.3493 16.6264 10.4166 16.0207 10.8317 15.6886C11.2468 15.3566 11.8525 15.4239 12.1846 15.839L13.1828 17.0868L15.8469 14.0897C16.2001 13.6924 16.8085 13.6566 17.2058 14.0097Z" fill="#3E8AFF"/>
</g>
</g>
</svg>
