<svg width="25" height="25" viewBox="0 0 25 25" fill="none" xmlns="http://www.w3.org/2000/svg">
<path d="M3.66876 8.22162C3.66876 6.62547 3.66876 5.8274 3.97939 5.21775C4.25263 4.68149 4.68863 4.24549 5.22489 3.97225C5.83454 3.66162 6.63261 3.66162 8.22876 3.66162H16.2088C17.8049 3.66162 18.603 3.66162 19.2126 3.97225C19.7489 4.24549 20.1849 4.68149 20.4581 5.21775C20.7688 5.8274 20.7688 6.62547 20.7688 8.22162V13.3516C20.7688 14.9478 20.7688 15.7458 20.4581 16.3555C20.1849 16.8918 19.7489 17.3278 19.2126 17.601C18.603 17.9116 17.8049 17.9116 16.2088 17.9116H13.8183C13.2255 17.9116 12.929 17.9116 12.6455 17.9698C12.394 18.0214 12.1506 18.1068 11.9219 18.2237C11.6641 18.3553 11.4327 18.5405 10.9697 18.9109L8.70353 20.7238C8.30825 21.04 8.11061 21.1981 7.94428 21.1983C7.79962 21.1985 7.66277 21.1327 7.57253 21.0197C7.46876 20.8897 7.46876 20.6366 7.46876 20.1303V17.9116C6.58529 17.9116 6.14355 17.9116 5.78113 17.8145C4.79762 17.551 4.0294 16.7828 3.76587 15.7993C3.66876 15.4368 3.66876 14.9951 3.66876 14.1116V8.22162Z" fill="#D6DAE0"/>
</svg>
