<svg width="25" height="25" viewBox="0 0 25 25" fill="none" xmlns="http://www.w3.org/2000/svg">
<path d="M3.66876 8.62152C3.66876 7.02537 3.66876 6.2273 3.97939 5.61765C4.25263 5.08139 4.68863 4.64539 5.22489 4.37215C5.83454 4.06152 6.63261 4.06152 8.22876 4.06152H16.2088C17.8049 4.06152 18.603 4.06152 19.2126 4.37215C19.7489 4.64539 20.1849 5.08139 20.4581 5.61765C20.7688 6.2273 20.7688 7.02537 20.7688 8.62152V13.7515C20.7688 15.3477 20.7688 16.1457 20.4581 16.7554C20.1849 17.2917 19.7489 17.7277 19.2126 18.0009C18.603 18.3115 17.8049 18.3115 16.2088 18.3115H13.8183C13.2255 18.3115 12.929 18.3115 12.6455 18.3697C12.394 18.4213 12.1506 18.5067 11.9219 18.6236C11.6641 18.7552 11.4327 18.9404 10.9697 19.3108L8.70353 21.1237C8.30825 21.4399 8.11061 21.598 7.94428 21.5982C7.79962 21.5984 7.66277 21.5326 7.57253 21.4196C7.46876 21.2896 7.46876 21.0365 7.46876 20.5302V18.3115C6.58529 18.3115 6.14355 18.3115 5.78113 18.2144C4.79762 17.9509 4.0294 17.1827 3.76587 16.1992C3.66876 15.8367 3.66876 15.395 3.66876 14.5115V8.62152Z" fill="#3E8AFF"/>
</svg>
