<svg width="27" height="27" viewBox="0 0 27 27" fill="none" xmlns="http://www.w3.org/2000/svg">
<path d="M3.5957 8.82362C3.5957 7.06785 3.5957 6.18997 3.9374 5.51936C4.23796 4.92947 4.71755 4.44987 5.30744 4.14931C5.97806 3.80762 6.85594 3.80762 8.6117 3.80762H17.3897C19.1455 3.80762 20.0233 3.80762 20.694 4.14931C21.2839 4.44987 21.7634 4.92947 22.064 5.51936C22.4057 6.18997 22.4057 7.06785 22.4057 8.82362V14.4666C22.4057 16.2224 22.4057 17.1003 22.064 17.7709C21.7634 18.3608 21.2839 18.8404 20.694 19.1409C20.0233 19.4826 19.1455 19.4826 17.3897 19.4826H14.7602C14.1081 19.4826 13.782 19.4826 13.4701 19.5466C13.1934 19.6034 12.9257 19.6973 12.6741 19.8258C12.3906 19.9707 12.136 20.1744 11.6268 20.5818L9.13395 22.576C8.69914 22.9239 8.48173 23.0978 8.29877 23.098C8.13965 23.0982 7.98912 23.0258 7.88985 22.9015C7.7757 22.7585 7.7757 22.48 7.7757 21.9232V19.4826C6.80388 19.4826 6.31797 19.4826 5.91931 19.3758C4.83744 19.0859 3.99241 18.2409 3.70253 17.159C3.5957 16.7603 3.5957 16.2744 3.5957 15.3026V8.82362Z" fill="#CACED4"/>
</svg>
