<svg width="24" height="24" viewBox="0 0 24 24" fill="none" xmlns="http://www.w3.org/2000/svg">
<path d="M12.5769 7.70718C12.5769 7.58302 12.6467 7.46939 12.7574 7.4132L17.784 4.86218C18.0985 4.70259 18.4828 4.81867 18.6564 5.12563L20.5964 8.55701C20.6336 8.62276 20.647 8.69929 20.6345 8.77379L19.5461 15.2633C19.5195 15.4221 19.382 15.5385 19.221 15.5385H12.9066C12.7245 15.5385 12.5769 15.3909 12.5769 15.2088V7.70718Z" fill="#3E8AFF"/>
<path d="M12 7.70718C12 7.58302 11.9302 7.46939 11.8195 7.4132L6.79287 4.86218C6.47842 4.70259 6.09407 4.81867 5.92052 5.12563L3.98053 8.55701C3.94335 8.62276 3.92988 8.69929 3.94238 8.77379L5.03077 15.2633C5.0574 15.4221 5.19487 15.5385 5.3559 15.5385H11.6703C11.8524 15.5385 12 15.3909 12 15.2088V7.70718Z" fill="#3E8AFF"/>
<path d="M6.0769 11.0557C6.0769 10.9772 6.10492 10.9013 6.15591 10.8416L11.4841 4.60391C11.7522 4.29006 12.2395 4.29692 12.4987 4.61819L17.5203 10.8435C17.5676 10.9021 17.5934 10.9752 17.5934 11.0505V15.7033C17.5934 15.8854 17.4458 16.033 17.2637 16.033H6.40658C6.2245 16.033 6.0769 15.8854 6.0769 15.7033V11.0557Z" fill="#B2D1FF"/>
<path d="M12.1703 11.3149C12.0655 11.378 11.9344 11.378 11.8297 11.3149L2.90553 5.93201C2.41324 5.63507 1.80326 6.06646 1.91919 6.62955L3.70631 15.3099C3.8325 15.9228 4.37211 16.3626 4.9979 16.3626H19.0021C19.6279 16.3626 20.1675 15.9228 20.2937 15.3099L22.0808 6.62955C22.1967 6.06646 21.5867 5.63507 21.0944 5.93201L12.1703 11.3149Z" fill="#B2D1FF"/>
<path d="M3.9231 17.6813C3.9231 16.953 4.51349 16.3626 5.24178 16.3626H18.7583C19.4866 16.3626 20.077 16.953 20.077 17.6813C20.077 18.4096 19.4866 19 18.7583 19H5.24178C4.51349 19 3.9231 18.4096 3.9231 17.6813Z" fill="#3E8AFF"/>
</svg>
