<svg width="14" height="12" viewBox="0 0 14 12" fill="none" xmlns="http://www.w3.org/2000/svg">
<path d="M6.52422 1.68779C6.64297 1.82719 6.81687 1.9075 7 1.9075C7.18312 1.9075 7.35702 1.82719 7.47577 1.68779C7.90914 1.17905 8.63069 0.625 9.74074 0.625C11.6458 0.625 13.0417 2.47337 13.0417 4.32C13.0417 5.21187 12.6954 6.09936 12.1226 6.9532C11.5504 7.8063 10.7744 8.59178 9.97499 9.26553C9.17793 9.9373 8.37447 10.4839 7.76283 10.8623C7.45743 11.0512 7.20256 11.1966 7.02357 11.2932C7.01553 11.2976 7.00768 11.3018 7 11.3059C6.99232 11.3018 6.98446 11.2976 6.97642 11.2932C6.79743 11.1966 6.54256 11.0512 6.23716 10.8623C5.62552 10.4839 4.82206 9.9373 4.025 9.26553C3.22558 8.59178 2.44962 7.8063 1.87737 6.9532C1.30462 6.09936 0.958328 5.21187 0.958328 4.32C0.958328 2.47337 2.35419 0.625 4.25925 0.625C5.3693 0.625 6.09085 1.17905 6.52422 1.68779Z" fill="#3E8AFF" stroke="#3E8AFF" stroke-width="1.25" stroke-linecap="round" stroke-linejoin="round"/>
</svg>
