<svg width="25" height="25" viewBox="0 0 25 25" fill="none" xmlns="http://www.w3.org/2000/svg">
<path d="M2.92725 10.765C2.92725 10.1906 2.92725 9.90347 3.00127 9.639C3.06685 9.40473 3.17461 9.1844 3.31927 8.98881C3.48258 8.76801 3.70927 8.5917 4.16264 8.23908L10.9449 2.96395C11.2963 2.6907 11.4719 2.55407 11.6659 2.50155C11.837 2.45521 12.0174 2.45521 12.1886 2.50155C12.3826 2.55407 12.5582 2.6907 12.9096 2.96395L19.6919 8.23909C20.1452 8.5917 20.3719 8.76801 20.5352 8.98881C20.6799 9.1844 20.7876 9.40473 20.8532 9.639C20.9272 9.90347 20.9272 10.1906 20.9272 10.765V17.9999C20.9272 19.12 20.9272 19.6801 20.7093 20.1079C20.5175 20.4842 20.2115 20.7902 19.8352 20.9819C19.4074 21.1999 18.8473 21.1999 17.7272 21.1999H14.2909V15.6546C14.2909 15.1525 13.8839 14.7455 13.3818 14.7455H10.6545C10.1524 14.7455 9.74543 15.1525 9.74543 15.6546V21.1999H6.12725C5.00714 21.1999 4.44709 21.1999 4.01926 20.9819C3.64294 20.7902 3.33698 20.4842 3.14523 20.1079C2.92725 19.6801 2.92725 19.12 2.92725 17.9999V10.765Z" fill="#D6DAE0"/>
</svg>
