<svg width="27" height="27" viewBox="0 0 27 27" fill="none" xmlns="http://www.w3.org/2000/svg">
<path d="M3 11.6214C3 10.9896 3 10.6737 3.08143 10.3828C3.15356 10.1251 3.2721 9.88277 3.43123 9.66762C3.61087 9.42474 3.86022 9.2308 4.35893 8.84292L11.8195 3.04028C12.2059 2.7397 12.3992 2.58941 12.6125 2.53164C12.8008 2.48066 12.9992 2.48066 13.1875 2.53164C13.4008 2.58941 13.5941 2.7397 13.9805 3.04028L21.4411 8.84293C21.9398 9.2308 22.1891 9.42474 22.3688 9.66762C22.5279 9.88277 22.6464 10.1251 22.7186 10.3828C22.8 10.6737 22.8 10.9896 22.8 11.6214V19.5799C22.8 20.812 22.8 21.428 22.5602 21.8986C22.3493 22.3126 22.0127 22.6492 21.5988 22.8601C21.1282 23.0999 20.5121 23.0999 19.28 23.0999H15.5V17C15.5 16.4477 15.0523 16 14.5 16H11.5C10.9477 16 10.5 16.4477 10.5 17V23.0999H6.52C5.28788 23.0999 4.67183 23.0999 4.20122 22.8601C3.78726 22.6492 3.45071 22.3126 3.23979 21.8986C3 21.428 3 20.812 3 19.5799V11.6214Z" fill="#CACED4"/>
</svg>
