<svg width="50" height="50" viewBox="0 0 50 50" fill="none" xmlns="http://www.w3.org/2000/svg">
<circle cx="25" cy="25" r="25" fill="#FAE100"/>
<path d="M33.0353 24.9998C33.0353 29.4378 29.4376 33.0355 24.9996 33.0355C23.9307 33.0355 22.9106 32.8268 21.9777 32.448C21.7992 32.3755 21.7099 32.3392 21.6377 32.323C21.5671 32.3072 21.5149 32.3014 21.4426 32.3014C21.3686 32.3014 21.2881 32.3148 21.1269 32.3417L17.9503 32.8711C17.6176 32.9266 17.4513 32.9543 17.331 32.9027C17.2257 32.8576 17.1418 32.7737 17.0967 32.6684C17.0451 32.5481 17.0728 32.3818 17.1283 32.0491L17.6577 28.8725C17.6846 28.7114 17.698 28.6308 17.698 28.5569C17.698 28.4845 17.6922 28.4323 17.6764 28.3617C17.6602 28.2895 17.6239 28.2003 17.5514 28.0217C17.1726 27.0888 16.9639 26.0687 16.9639 24.9998C16.9639 20.5618 20.5616 16.9641 24.9996 16.9641C29.4376 16.9641 33.0353 20.5618 33.0353 24.9998Z" fill="#3C1D1E"/>
</svg>
