<svg width="24" height="24" viewBox="0 0 24 24" fill="none" xmlns="http://www.w3.org/2000/svg">
<path d="M14.7367 3.30005C17.9387 3.30005 20.0902 6.34778 20.0902 9.19096C20.0902 14.9489 11.1609 19.6637 10.9993 19.6637C10.8377 19.6637 1.90842 14.9489 1.90842 9.19096C1.90842 6.34778 4.05993 3.30005 7.26195 3.30005C9.10034 3.30005 10.3024 4.23073 10.9993 5.04891C11.6963 4.23073 12.8983 3.30005 14.7367 3.30005Z" fill="#CCE0FF"/>
<path d="M19.4141 12.1909C21.0152 12.1909 22.0909 13.7148 22.0909 15.1364C22.0909 18.0153 17.6263 20.3727 17.5455 20.3727C17.4646 20.3727 13 18.0153 13 15.1364C13 13.7148 14.0758 12.1909 15.6768 12.1909C16.596 12.1909 17.197 12.6563 17.5455 13.0653C17.8939 12.6563 18.4949 12.1909 19.4141 12.1909Z" fill="#3E8AFF"/>
</svg>
