<svg width="83" height="17" viewBox="0 0 83 17" fill="none" xmlns="http://www.w3.org/2000/svg">
<path d="M73.8662 13.2531C76.156 13.2531 77.6132 11.449 77.6132 8.5C77.6132 5.58571 76.156 3.74694 73.8662 3.74694C71.5764 3.74694 70.1193 5.55102 70.1193 8.5C70.1193 11.449 71.5417 13.2531 73.8662 13.2531ZM73.8662 0C78.6887 0 82.0887 3.50408 82.0887 8.5C82.0887 13.4612 78.6887 17 73.8662 17C69.0438 17 65.6438 13.4612 65.6438 8.5C65.6438 3.50408 69.0438 0 73.8662 0Z" fill="#3E8AFF"/>
<path d="M58.9807 8.01429C58.9807 5.34286 57.8011 3.85102 55.5113 3.85102C53.5684 3.88572 51.9378 5.44694 52.0072 8.01429V16.9306H47.5317V0.25436H52.0072V2.42857C53.0827 0.971432 54.8868 0.104085 56.448 0.104085C59.1541 0.104085 63.4562 1.76939 63.4562 7.9449V16.9306H58.9807V8.01429Z" fill="#3E8AFF"/>
<path d="M32.8979 9.47143C32.8979 11.9694 34.2857 13.2531 36.402 13.2531C38.5183 13.2531 39.9408 11.8306 39.8714 9.33265V0.25438H44.3469V16.9306H39.8714V14.9184C38.8306 16.3408 37.0612 17 35.4306 17C31.302 17 28.4224 14.1204 28.4224 9.54082V0.25438H32.8979V9.47143Z" fill="#3E8AFF"/>
<path d="M21.0939 7.80612C21.0939 5.44694 19.9143 3.88572 18.1796 3.88572C16.3061 3.88572 15.0224 5.62041 15.0224 7.73674V16.9306H10.5469V7.80612C10.5469 5.44694 9.36734 3.88572 7.66735 3.88572C5.79388 3.88572 4.47551 5.55102 4.47551 7.91021V16.9306H0V0.25436H4.47551V2.42857C5.44694 0.971432 6.90408 0.104085 8.4653 0.104085C10.4082 0.104085 12.3163 1.52653 13.3224 3.26123C14.5367 1.52653 16.8265 0.104085 18.7694 0.104085C22.9673 0.104085 25.6041 3.29592 25.6041 7.73674V16.9306H21.0939V7.80612Z" fill="#3E8AFF"/>
</svg>
