<svg width="24" height="24" viewBox="0 0 24 24" fill="none" xmlns="http://www.w3.org/2000/svg">
<g id="&#235;&#143;&#188;&#236;&#167;&#128;">
<circle id="Ellipse 2247" cx="11.5" cy="6.5" r="4.5" fill="#3E8AFF"/>
<path id="Icon (Stroke)" fill-rule="evenodd" clip-rule="evenodd" d="M18.8412 5.46031C19.1411 5.54539 19.3984 5.73947 19.5626 6.00446C19.6905 6.21087 19.7242 6.42269 19.7377 6.5738C19.7501 6.71295 19.75 6.87761 19.75 7.03634L19.75 8.17017C19.75 8.1824 19.75 8.19352 19.75 8.20375C19.7622 8.21606 19.7758 8.22981 19.7916 8.24568C20.3422 8.80065 20.7975 9.45127 21.1301 10.1708C21.1438 10.2005 21.1559 10.2266 21.1667 10.25C21.1814 10.25 21.1971 10.25 21.2143 10.25L21.2335 10.25C21.3498 10.25 21.4759 10.2499 21.5852 10.2584C21.7088 10.2681 21.8722 10.2918 22.0424 10.3738C22.2975 10.4967 22.5033 10.7025 22.6262 10.9576C22.7082 11.1278 22.7319 11.2912 22.7415 11.4147C22.7501 11.524 22.75 11.6502 22.75 11.7665V15.2202C22.75 15.3424 22.7501 15.4748 22.7407 15.5895C22.7301 15.7192 22.7039 15.8906 22.6138 16.0675C22.4939 16.3027 22.3027 16.4939 22.0675 16.6138C21.8907 16.7038 21.7192 16.7301 21.5895 16.7407C21.4748 16.7501 21.3424 16.75 21.2202 16.75L20.6587 16.75C20.6424 16.75 20.6275 16.75 20.6139 16.75C20.6009 16.7689 20.5863 16.79 20.5696 16.8144C19.8871 17.8092 18.9448 18.6121 17.8395 19.1253C17.8055 19.1411 17.7762 19.1547 17.75 19.1669C17.75 19.1844 17.75 19.2033 17.75 19.2243L17.75 20.2202C17.75 20.3424 17.7501 20.4748 17.7407 20.5895C17.7301 20.7192 17.7039 20.8906 17.6138 21.0675C17.4939 21.3027 17.3027 21.4939 17.0675 21.6138C16.8907 21.7038 16.7192 21.7301 16.5895 21.7407C16.4748 21.7501 16.3424 21.75 16.2202 21.75H14.2797C14.1575 21.75 14.0251 21.7501 13.9105 21.7407C13.7807 21.7301 13.6093 21.7038 13.4324 21.6138C13.1972 21.4939 13.006 21.3027 12.8862 21.0675C12.7961 20.8907 12.7698 20.7192 12.7592 20.5895C12.7499 20.4748 12.7499 20.3424 12.7499 20.2202L12.7499 19.8C12.7499 19.7824 12.7499 19.7657 12.7499 19.75C12.7342 19.75 12.7176 19.75 12.6999 19.75H11.2999C11.2823 19.75 11.2657 19.75 11.2499 19.75C11.2499 19.7657 11.2499 19.7824 11.2499 19.8L11.2499 20.2202C11.25 20.3424 11.25 20.4748 11.2406 20.5895C11.23 20.7192 11.2038 20.8907 11.1137 21.0675C10.9938 21.3027 10.8026 21.4939 10.5674 21.6137C10.3906 21.7038 10.2192 21.7301 10.0894 21.7407C9.97476 21.7501 9.84231 21.75 9.72016 21.75H7.7797C7.65755 21.75 7.5251 21.7501 7.41046 21.7407C7.2807 21.7301 7.10927 21.7038 6.93244 21.6137C6.69724 21.4939 6.50601 21.3027 6.38617 21.0675C6.29607 20.8907 6.26983 20.7192 6.25923 20.5895C6.24987 20.4748 6.2499 20.3424 6.24993 20.2202L6.24993 17.8298C6.24993 17.8176 6.24993 17.8065 6.24992 17.7962C6.23773 17.7839 6.22406 17.7701 6.20828 17.7542C5.16393 16.7017 4.46323 15.3051 4.29117 13.75H4C2.48122 13.75 1.25 12.5188 1.25 11C1.25 9.98116 1.80444 9.09271 2.62446 8.61835C2.983 8.41094 3.4418 8.53347 3.6492 8.89201C3.85661 9.25056 3.73409 9.70935 3.37554 9.91676C2.99996 10.134 2.75 10.5383 2.75 11C2.75 11.6903 3.30964 12.25 4 12.25H4.29114C4.53569 10.0382 5.84902 8.14932 7.70035 7.11019L15.3949 6.24998L17.7975 5.56354C17.9501 5.5199 18.1084 5.47464 18.2456 5.44834C18.3946 5.41978 18.6076 5.39404 18.8412 5.46031ZM17.7531 19.0213L17.7529 19.0228Z" fill="#B2D1FF"/>
<circle id="Ellipse 2246" cx="11.5" cy="6.5" r="4.5" fill="#3E8AFF"/>
<path id="Icon (Stroke)_2" fill-rule="evenodd" clip-rule="evenodd" d="M11.5 4C11.7761 4 12 4.22386 12 4.5H12.5C12.7761 4.5 13 4.72386 13 5C13 5.27614 12.7761 5.5 12.5 5.5H11.25C11.1119 5.5 11 5.61193 11 5.75C11 5.88807 11.1119 6 11.25 6H11.75C12.4404 6 13 6.55964 13 7.25C13 7.85474 12.5706 8.35918 12 8.475V8.5C12 8.77614 11.7761 9 11.5 9C11.2239 9 11 8.77614 11 8.5H10.5C10.2239 8.5 10 8.27614 10 8C10 7.72386 10.2239 7.5 10.5 7.5H11.75C11.8881 7.5 12 7.38807 12 7.25C12 7.11193 11.8881 7 11.75 7H11.25C10.5596 7 10 6.44036 10 5.75C10 5.14526 10.4294 4.64082 11 4.525V4.5C11 4.22386 11.2239 4 11.5 4Z" fill="white"/>
</g>
</svg>
