<svg width="28" height="27" viewBox="0 0 28 27" fill="none" xmlns="http://www.w3.org/2000/svg">
<path fill-rule="evenodd" clip-rule="evenodd" d="M17.7996 23H10.3996C8.71945 23 7.87937 23 7.23764 22.673C6.67315 22.3854 6.21421 21.9265 5.92659 21.362C5.59961 20.7202 5.59961 19.8802 5.59961 18.2V7.8C5.59961 6.11984 5.59961 5.27976 5.92659 4.63803C6.21421 4.07354 6.67315 3.6146 7.23764 3.32698C7.87937 3 8.71945 3 10.3996 3H17.7996C19.4798 3 20.3198 3 20.9616 3.32698C21.5261 3.6146 21.985 4.07354 22.2726 4.63803C22.5996 5.27976 22.5996 6.11984 22.5996 7.8V18.2C22.5996 19.8802 22.5996 20.7202 22.2726 21.362C21.985 21.9265 21.5261 22.3854 20.9616 22.673C20.3198 23 19.4798 23 17.7996 23ZM9.59961 7C9.04732 7 8.59961 7.44772 8.59961 8C8.59961 8.55228 9.04732 9 9.59961 9H18.5996C19.1519 9 19.5996 8.55228 19.5996 8C19.5996 7.44772 19.1519 7 18.5996 7H9.59961ZM9.59961 11C9.04732 11 8.59961 11.4477 8.59961 12C8.59961 12.5523 9.04732 13 9.59961 13H16.5996C17.1519 13 17.5996 12.5523 17.5996 12C17.5996 11.4477 17.1519 11 16.5996 11H9.59961ZM9.59961 15C9.04732 15 8.59961 15.4477 8.59961 16C8.59961 16.5523 9.04732 17 9.59961 17H12.5996C13.1519 17 13.5996 16.5523 13.5996 16C13.5996 15.4477 13.1519 15 12.5996 15H9.59961Z" fill="#CACED4"/>
</svg>
