<svg width="24" height="24" viewBox="0 0 24 24" fill="none" xmlns="http://www.w3.org/2000/svg">
<path d="M17.6875 21.7451C17.2378 21.745 16.801 21.5948 16.4463 21.3183L12.416 18.1963L9.71388 21.1787C9.59495 21.3098 9.44335 21.407 9.27455 21.4604C9.10576 21.5138 8.92583 21.5214 8.75313 21.4824C8.58044 21.4435 8.42117 21.3594 8.2916 21.2388C8.16202 21.1182 8.06679 20.9653 8.01563 20.7959L5.99513 14.1142L2.37013 12.8535C1.97877 12.7171 1.63817 12.4649 1.39357 12.1304C1.14897 11.7959 1.01195 11.3948 1.00072 10.9805C0.989486 10.5663 1.10457 10.1584 1.33068 9.81107C1.55679 9.46376 1.88322 9.19347 2.26661 9.03611L20.1865 1.80075C20.5285 1.66175 20.9017 1.61801 21.2665 1.67417C21.6313 1.73034 21.974 1.8843 22.2583 2.11971C22.5426 2.35511 22.7578 2.66316 22.881 3.01109C23.0042 3.35902 23.0308 3.73383 22.958 4.09568L19.6953 20.1123C19.5987 20.5734 19.3464 20.9874 18.9809 21.2846C18.6153 21.5819 18.1587 21.7445 17.6875 21.7451H17.6875Z" fill="#CCE0FF"/>
<path d="M8.97266 21.505C8.75807 21.5051 8.54916 21.4361 8.37681 21.3082C8.20447 21.1803 8.07785 21.0004 8.01566 20.795L5.84766 13.6358C5.77989 13.4128 5.7923 13.173 5.88272 12.9581C5.97314 12.7432 6.13589 12.5667 6.34277 12.4592L16.9102 6.95717C17.122 6.84663 17.3664 6.81561 17.5991 6.86974C17.8319 6.92387 18.0375 7.05955 18.1788 7.25223C18.3201 7.4449 18.3878 7.68181 18.3695 7.92005C18.3512 8.15828 18.2482 8.38209 18.0791 8.55093L10.9961 15.6339L9.95215 20.7062C9.90755 20.9241 9.79149 21.1209 9.62238 21.2654C9.45327 21.41 9.24077 21.4939 9.01855 21.504C9.00293 21.505 8.9873 21.505 8.97266 21.505Z" fill="#3E8AFF"/>
</svg>
