<svg width="375" height="45" viewBox="0 0 375 45" fill="none" xmlns="http://www.w3.org/2000/svg">
<g clip-path="url(#clip0_833_9034)">
<path fill-rule="evenodd" clip-rule="evenodd" d="M304 20.1914H305C305.552 20.1914 306 20.6391 306 21.1914V27.1914C306 27.7437 305.552 28.1914 305 28.1914H304C303.448 28.1914 303 27.7437 303 27.1914V21.1914C303 20.6391 303.448 20.1914 304 20.1914Z" fill="#D1D1D6"/>
<path fill-rule="evenodd" clip-rule="evenodd" d="M299.5 22.1914H300.5C301.052 22.1914 301.5 22.6391 301.5 23.1914V27.1914C301.5 27.7437 301.052 28.1914 300.5 28.1914H299.5C298.948 28.1914 298.5 27.7437 298.5 27.1914V23.1914C298.5 22.6391 298.948 22.1914 299.5 22.1914Z" fill="#D1D1D6"/>
<path fill-rule="evenodd" clip-rule="evenodd" d="M295 23.6914H296C296.552 23.6914 297 24.1391 297 24.6914V27.1914C297 27.7437 296.552 28.1914 296 28.1914H295C294.448 28.1914 294 27.7437 294 27.1914V24.6914C294 24.1391 294.448 23.6914 295 23.6914Z" fill="#D1D1D6"/>
<path fill-rule="evenodd" clip-rule="evenodd" d="M308.5 18.1914H309.5C310.052 18.1914 310.5 18.6391 310.5 19.1914V27.1914C310.5 27.7437 310.052 28.1914 309.5 28.1914H308.5C307.948 28.1914 307.5 27.7437 307.5 27.1914V19.1914C307.5 18.6391 307.948 18.1914 308.5 18.1914Z" fill="#3C3C43" fill-opacity="0.18"/>
<path fill-rule="evenodd" clip-rule="evenodd" d="M304 20.1914H305C305.552 20.1914 306 20.6391 306 21.1914V27.1914C306 27.7437 305.552 28.1914 305 28.1914H304C303.448 28.1914 303 27.7437 303 27.1914V21.1914C303 20.6391 303.448 20.1914 304 20.1914Z" fill="black"/>
<path fill-rule="evenodd" clip-rule="evenodd" d="M299.5 22.1914H300.5C301.052 22.1914 301.5 22.6391 301.5 23.1914V27.1914C301.5 27.7437 301.052 28.1914 300.5 28.1914H299.5C298.948 28.1914 298.5 27.7437 298.5 27.1914V23.1914C298.5 22.6391 298.948 22.1914 299.5 22.1914Z" fill="black"/>
<path fill-rule="evenodd" clip-rule="evenodd" d="M295 23.6914H296C296.552 23.6914 297 24.1391 297 24.6914V27.1914C297 27.7437 296.552 28.1914 296 28.1914H295C294.448 28.1914 294 27.7437 294 27.1914V24.6914C294 24.1391 294.448 23.6914 295 23.6914Z" fill="black"/>
<path d="M324.133 25.1309C324.772 25.1309 325.394 25.2989 325.941 25.6193L326.163 25.7492C326.331 25.8476 326.361 26.0779 326.223 26.2154L324.329 28.1043C324.212 28.2203 324.024 28.2203 323.907 28.1043L322.026 26.2276C321.888 26.0907 321.917 25.8615 322.084 25.7623L322.303 25.6319C322.855 25.3034 323.485 25.1309 324.133 25.1309Z" fill="black"/>
<path d="M324.133 21.6611C325.724 21.6611 327.251 22.1889 328.495 23.1662L328.671 23.3043C328.811 23.4144 328.824 23.6219 328.697 23.7478L327.567 24.8754C327.462 24.9797 327.297 24.9917 327.178 24.9035L327.04 24.8011C326.2 24.1765 325.186 23.8415 324.133 23.8415C323.073 23.8415 322.053 24.1807 321.21 24.8124L321.072 24.9158C320.953 25.0047 320.787 24.993 320.682 24.8884L319.552 23.7611C319.426 23.6356 319.438 23.4286 319.578 23.3183L319.753 23.18C321 22.194 322.534 21.6611 324.133 21.6611Z" fill="black"/>
<path d="M324.133 18.1914C326.657 18.1914 329.072 19.082 330.983 20.7143L331.146 20.8537C331.278 20.9663 331.285 21.167 331.163 21.2894L330.036 22.4134C329.926 22.5222 329.752 22.5299 329.634 22.4309L329.494 22.3142C327.989 21.0561 326.104 20.3718 324.133 20.3718C322.155 20.3718 320.263 21.0608 318.756 22.3268L318.617 22.4441C318.498 22.5435 318.324 22.5361 318.214 22.427L317.087 21.3032C316.965 21.1809 316.972 20.9806 317.104 20.8679L317.266 20.7285C319.18 19.0873 321.601 18.1914 324.133 18.1914Z" fill="black"/>
<path d="M360 21.1914V21.1914C360.552 21.1914 361 21.6391 361 22.1914V24.1914C361 24.7437 360.552 25.1914 360 25.1914V25.1914V21.1914Z" fill="#3C3C43" fill-opacity="0.6"/>
<path fill-rule="evenodd" clip-rule="evenodd" d="M339 17.1914H356C357.657 17.1914 359 18.5346 359 20.1914V26.1914C359 27.8483 357.657 29.1914 356 29.1914H339C337.343 29.1914 336 27.8483 336 26.1914V20.1914C336 18.5346 337.343 17.1914 339 17.1914ZM339 18.1914C337.895 18.1914 337 19.0868 337 20.1914V26.1914C337 27.296 337.895 28.1914 339 28.1914H356C357.105 28.1914 358 27.296 358 26.1914V20.1914C358 19.0868 357.105 18.1914 356 18.1914H339Z" fill="#3C3C43" fill-opacity="0.6"/>
<rect x="338" y="19.1914" width="19" height="8" rx="1" fill="black"/>
<path d="M37.8672 28.2803C40.5552 28.2803 42.1519 26.1782 42.1519 22.6187C42.1519 21.2783 41.8955 20.1504 41.4048 19.2788C40.6943 17.9238 39.4712 17.1914 37.9258 17.1914C35.626 17.1914 34 18.7368 34 20.9048C34 22.9409 35.4648 24.4204 37.479 24.4204C38.7168 24.4204 39.7202 23.8418 40.2183 22.8384H40.2402C40.2402 22.8384 40.2695 22.8384 40.2769 22.8384C40.2915 22.8384 40.3428 22.8384 40.3428 22.8384C40.3428 25.2554 39.4272 26.6982 37.8818 26.6982C36.9736 26.6982 36.2705 26.2002 36.0288 25.4019H34.1465C34.4614 27.1377 35.9336 28.2803 37.8672 28.2803ZM37.9331 22.9189C36.7173 22.9189 35.853 22.0547 35.853 20.8462C35.853 19.667 36.7612 18.7661 37.9404 18.7661C39.1196 18.7661 40.0278 19.6816 40.0278 20.8755C40.0278 22.0547 39.1416 22.9189 37.9331 22.9189Z" fill="black"/>
<path d="M45.243 28.1777C45.9388 28.1777 46.4148 27.6797 46.4148 27.0205C46.4148 26.354 45.9388 25.8633 45.243 25.8633C44.5545 25.8633 44.0711 26.354 44.0711 27.0205C44.0711 27.6797 44.5545 28.1777 45.243 28.1777ZM45.243 22.6846C45.9388 22.6846 46.4148 22.1938 46.4148 21.5347C46.4148 20.8682 45.9388 20.3774 45.243 20.3774C44.5545 20.3774 44.0711 20.8682 44.0711 21.5347C44.0711 22.1938 44.5545 22.6846 45.243 22.6846Z" fill="black"/>
<path d="M53.2706 28.0239H55.0797V26.0537H56.5079V24.457H55.0797V17.4551H52.4137C50.546 20.2676 49.0592 22.6187 48.107 24.3691V26.0537H53.2706V28.0239ZM49.8575 24.3911C51.088 22.2231 52.1866 20.4873 53.1974 18.9932H53.2999V24.501H49.8575V24.3911Z" fill="black"/>
<path d="M60.5365 28.0239H62.4262V17.4551H60.5438L57.7826 19.3887V21.2051L60.412 19.3594H60.5365V28.0239Z" fill="black"/>
</g>
<defs>
<clipPath id="clip0_833_9034">
<rect width="375" height="44" fill="white" transform="translate(0 0.191406)"/>
</clipPath>
</defs>
</svg>
