<svg width="375" height="44" viewBox="0 0 375 44" fill="none" xmlns="http://www.w3.org/2000/svg">
<path fill-rule="evenodd" clip-rule="evenodd" d="M304 20H305C305.552 20 306 20.4477 306 21V27C306 27.5523 305.552 28 305 28H304C303.448 28 303 27.5523 303 27V21C303 20.4477 303.448 20 304 20Z" fill="#D1D1D6"/>
<path fill-rule="evenodd" clip-rule="evenodd" d="M299.5 22H300.5C301.052 22 301.5 22.4477 301.5 23V27C301.5 27.5523 301.052 28 300.5 28H299.5C298.948 28 298.5 27.5523 298.5 27V23C298.5 22.4477 298.948 22 299.5 22Z" fill="#D1D1D6"/>
<path fill-rule="evenodd" clip-rule="evenodd" d="M295 23.5H296C296.552 23.5 297 23.9477 297 24.5V27C297 27.5523 296.552 28 296 28H295C294.448 28 294 27.5523 294 27V24.5C294 23.9477 294.448 23.5 295 23.5Z" fill="#D1D1D6"/>
<path fill-rule="evenodd" clip-rule="evenodd" d="M308.5 18H309.5C310.052 18 310.5 18.4477 310.5 19V27C310.5 27.5523 310.052 28 309.5 28H308.5C307.948 28 307.5 27.5523 307.5 27V19C307.5 18.4477 307.948 18 308.5 18Z" fill="#3C3C43" fill-opacity="0.18"/>
<path fill-rule="evenodd" clip-rule="evenodd" d="M304 20H305C305.552 20 306 20.4477 306 21V27C306 27.5523 305.552 28 305 28H304C303.448 28 303 27.5523 303 27V21C303 20.4477 303.448 20 304 20Z" fill="black"/>
<path fill-rule="evenodd" clip-rule="evenodd" d="M299.5 22H300.5C301.052 22 301.5 22.4477 301.5 23V27C301.5 27.5523 301.052 28 300.5 28H299.5C298.948 28 298.5 27.5523 298.5 27V23C298.5 22.4477 298.948 22 299.5 22Z" fill="black"/>
<path fill-rule="evenodd" clip-rule="evenodd" d="M295 23.5H296C296.552 23.5 297 23.9477 297 24.5V27C297 27.5523 296.552 28 296 28H295C294.448 28 294 27.5523 294 27V24.5C294 23.9477 294.448 23.5 295 23.5Z" fill="black"/>
<path d="M324.133 24.9396C324.772 24.9396 325.394 25.1076 325.941 25.428L326.163 25.5579C326.331 25.6563 326.361 25.8866 326.223 26.0242L324.329 27.913C324.212 28.029 324.024 28.029 323.907 27.913L322.026 26.0363C321.888 25.8994 321.917 25.6702 322.084 25.5711L322.303 25.4406C322.855 25.1121 323.485 24.9396 324.133 24.9396Z" fill="black"/>
<path d="M324.133 21.4698C325.724 21.4698 327.251 21.9976 328.495 22.9749L328.671 23.113C328.811 23.2232 328.824 23.4306 328.697 23.5565L327.567 24.6841C327.462 24.7884 327.297 24.8004 327.178 24.7123L327.04 24.6098C326.2 23.9852 325.186 23.6502 324.133 23.6502C323.073 23.6502 322.053 23.9894 321.21 24.6211L321.072 24.7245C320.953 24.8134 320.787 24.8017 320.682 24.6971L319.552 23.5699C319.426 23.4443 319.438 23.2373 319.578 23.127L319.753 22.9888C321 22.0027 322.534 21.4698 324.133 21.4698Z" fill="black"/>
<path d="M324.133 18C326.657 18 329.072 18.8906 330.983 20.5229L331.146 20.6623C331.278 20.7749 331.285 20.9756 331.163 21.098L330.036 22.2219C329.926 22.3308 329.752 22.3385 329.634 22.2395L329.494 22.1228C327.989 20.8647 326.104 20.1804 324.133 20.1804C322.155 20.1804 320.263 20.8694 318.756 22.1354L318.617 22.2527C318.498 22.3521 318.324 22.3447 318.214 22.2356L317.087 21.1118C316.965 20.9895 316.972 20.7892 317.104 20.6765L317.266 20.5371C319.18 18.8959 321.601 18 324.133 18Z" fill="black"/>
<path d="M360 21C360.552 21 361 21.4477 361 22V24C361 24.5523 360.552 25 360 25V21Z" fill="#3C3C43" fill-opacity="0.6"/>
<path fill-rule="evenodd" clip-rule="evenodd" d="M339 17H356C357.657 17 359 18.3431 359 20V26C359 27.6569 357.657 29 356 29H339C337.343 29 336 27.6569 336 26V20C336 18.3431 337.343 17 339 17ZM339 18C337.895 18 337 18.8954 337 20V26C337 27.1046 337.895 28 339 28H356C357.105 28 358 27.1046 358 26V20C358 18.8954 357.105 18 356 18H339Z" fill="#3C3C43" fill-opacity="0.6"/>
<rect x="338" y="19" width="19" height="8" rx="1" fill="black"/>
<path d="M37.8672 28.0889C40.5552 28.0889 42.1519 25.9868 42.1519 22.4272C42.1519 21.0869 41.8955 19.959 41.4048 19.0874C40.6943 17.7324 39.4712 17 37.9258 17C35.626 17 34 18.5454 34 20.7134C34 22.7495 35.4648 24.229 37.479 24.229C38.7168 24.229 39.7202 23.6504 40.2183 22.647H40.2402C40.2402 22.647 40.2695 22.647 40.2769 22.647C40.2915 22.647 40.3428 22.647 40.3428 22.647C40.3428 25.064 39.4272 26.5068 37.8818 26.5068C36.9736 26.5068 36.2705 26.0088 36.0288 25.2104H34.1465C34.4614 26.9463 35.9336 28.0889 37.8672 28.0889ZM37.9331 22.7275C36.7173 22.7275 35.853 21.8633 35.853 20.6548C35.853 19.4756 36.7612 18.5747 37.9404 18.5747C39.1196 18.5747 40.0278 19.4902 40.0278 20.6841C40.0278 21.8633 39.1416 22.7275 37.9331 22.7275Z" fill="black"/>
<path d="M45.243 27.9863C45.9388 27.9863 46.4148 27.4883 46.4148 26.8291C46.4148 26.1626 45.9388 25.6719 45.243 25.6719C44.5545 25.6719 44.0711 26.1626 44.0711 26.8291C44.0711 27.4883 44.5545 27.9863 45.243 27.9863ZM45.243 22.4932C45.9388 22.4932 46.4148 22.0024 46.4148 21.3433C46.4148 20.6768 45.9388 20.186 45.243 20.186C44.5545 20.186 44.0711 20.6768 44.0711 21.3433C44.0711 22.0024 44.5545 22.4932 45.243 22.4932Z" fill="black"/>
<path d="M53.2706 27.8325H55.0797V25.8623H56.5079V24.2656H55.0797V17.2637H52.4137C50.546 20.0762 49.0592 22.4272 48.107 24.1777V25.8623H53.2706V27.8325ZM49.8575 24.1997C51.088 22.0317 52.1866 20.2959 53.1974 18.8018H53.2999V24.3096H49.8575V24.1997Z" fill="black"/>
<path d="M60.5365 27.8325H62.4262V17.2637H60.5438L57.7826 19.1973V21.0137L60.412 19.168H60.5365V27.8325Z" fill="black"/>
</svg>
