<svg width="25" height="25" viewBox="0 0 25 25" fill="none" xmlns="http://www.w3.org/2000/svg">
<path d="M2.92725 11.1649C2.92725 10.5906 2.92725 10.3034 3.00127 10.0389C3.06685 9.80464 3.17461 9.5843 3.31927 9.38871C3.48258 9.16791 3.70927 8.9916 4.16264 8.63898L10.9449 3.36385C11.2963 3.0906 11.4719 2.95397 11.6659 2.90145C11.837 2.85511 12.0174 2.85511 12.1886 2.90145C12.3826 2.95397 12.5582 3.0906 12.9096 3.36385L19.6919 8.63899C20.1452 8.9916 20.3719 9.16791 20.5352 9.38871C20.6799 9.5843 20.7876 9.80464 20.8532 10.0389C20.9272 10.3034 20.9272 10.5906 20.9272 11.1649V18.3998C20.9272 19.5199 20.9272 20.08 20.7093 20.5078C20.5175 20.8841 20.2115 21.1901 19.8352 21.3819C19.4074 21.5998 18.8473 21.5998 17.7272 21.5998H14.2909V16.0545C14.2909 15.5524 13.8839 15.1454 13.3818 15.1454H10.6545C10.1524 15.1454 9.74543 15.5524 9.74543 16.0545V21.5998H6.12725C5.00714 21.5998 4.44709 21.5998 4.01926 21.3819C3.64294 21.1901 3.33698 20.8841 3.14523 20.5078C2.92725 20.08 2.92725 19.5199 2.92725 18.3998V11.1649Z" fill="#3E8AFF"/>
</svg>
