<svg width="25" height="25" viewBox="0 0 25 25" fill="none" xmlns="http://www.w3.org/2000/svg">
<path fill-rule="evenodd" clip-rule="evenodd" d="M16.0535 21.1091H9.32622C7.79881 21.1091 7.0351 21.1091 6.4517 20.8118C5.93853 20.5503 5.52131 20.1331 5.25984 19.6199C4.96259 19.0366 4.96259 18.2728 4.96259 16.7454V7.29088C4.96259 5.76347 4.96259 4.99976 5.25984 4.41636C5.52131 3.90319 5.93853 3.48597 6.4517 3.2245C7.0351 2.92725 7.79881 2.92725 9.32622 2.92725H16.0535C17.5809 2.92725 18.3446 2.92725 18.928 3.2245C19.4412 3.48597 19.8584 3.90319 20.1199 4.41636C20.4171 4.99976 20.4171 5.76347 20.4171 7.29088V16.7454C20.4171 18.2728 20.4171 19.0366 20.1199 19.6199C19.8584 20.1331 19.4412 20.5503 18.928 20.8118C18.3446 21.1091 17.5809 21.1091 16.0535 21.1091ZM8.59895 6.56361C8.09687 6.56361 7.68986 6.97062 7.68986 7.4727C7.68986 7.97478 8.09687 8.38179 8.59895 8.38179H16.7808C17.2828 8.38179 17.6899 7.97478 17.6899 7.4727C17.6899 6.97062 17.2828 6.56361 16.7808 6.56361H8.59895ZM8.59895 10.2C8.09687 10.2 7.68986 10.607 7.68986 11.1091C7.68986 11.6111 8.09687 12.0182 8.59895 12.0182H14.9626C15.4647 12.0182 15.8717 11.6111 15.8717 11.1091C15.8717 10.607 15.4647 10.2 14.9626 10.2H8.59895ZM8.59895 13.8363C8.09687 13.8363 7.68986 14.2434 7.68986 14.7454C7.68986 15.2475 8.09687 15.6545 8.59895 15.6545H11.3262C11.8283 15.6545 12.2353 15.2475 12.2353 14.7454C12.2353 14.2434 11.8283 13.8363 11.3262 13.8363H8.59895Z" fill="#D6DAE0"/>
</svg>
