<svg width="25" height="25" viewBox="0 0 25 25" fill="none" xmlns="http://www.w3.org/2000/svg">
<path fill-rule="evenodd" clip-rule="evenodd" d="M16.0535 21.509H9.32622C7.79881 21.509 7.0351 21.509 6.4517 21.2117C5.93853 20.9502 5.52131 20.533 5.25984 20.0198C4.96259 19.4365 4.96259 18.6727 4.96259 17.1453V7.69078C4.96259 6.16337 4.96259 5.39966 5.25984 4.81627C5.52131 4.3031 5.93853 3.88588 6.4517 3.6244C7.0351 3.32715 7.79881 3.32715 9.32622 3.32715H16.0535C17.5809 3.32715 18.3446 3.32715 18.928 3.6244C19.4412 3.88588 19.8584 4.3031 20.1199 4.81627C20.4171 5.39966 20.4171 6.16337 20.4171 7.69078V17.1453C20.4171 18.6727 20.4171 19.4365 20.1199 20.0198C19.8584 20.533 19.4412 20.9502 18.928 21.2117C18.3446 21.509 17.5809 21.509 16.0535 21.509ZM8.59895 6.96351C8.09687 6.96351 7.68986 7.37053 7.68986 7.8726C7.68986 8.37468 8.09687 8.78169 8.59895 8.78169H16.7808C17.2828 8.78169 17.6899 8.37468 17.6899 7.8726C17.6899 7.37053 17.2828 6.96351 16.7808 6.96351H8.59895ZM8.59895 10.5999C8.09687 10.5999 7.68986 11.0069 7.68986 11.509C7.68986 12.011 8.09687 12.4181 8.59895 12.4181H14.9626C15.4647 12.4181 15.8717 12.011 15.8717 11.509C15.8717 11.0069 15.4647 10.5999 14.9626 10.5999H8.59895ZM8.59895 14.2362C8.09687 14.2362 7.68986 14.6433 7.68986 15.1453C7.68986 15.6474 8.09687 16.0544 8.59895 16.0544H11.3262C11.8283 16.0544 12.2353 15.6474 12.2353 15.1453C12.2353 14.6433 11.8283 14.2362 11.3262 14.2362H8.59895Z" fill="#3E8AFF"/>
</svg>
